<?xml version="1.0" encoding="UTF-8" standalone="no"?>
<!-- Uploaded to: SVG Repo, www.svgrepo.com, Generator: SVG Repo Mixer Tools -->

<svg
   width="800px"
   height="800px"
   viewBox="0 0 192 192"
   fill="none"
   version="1.1"
   id="svg2"
   sodipodi:docname="todo-logo.svg"
   inkscape:version="1.3.2 (091e20ef0f, 2023-11-25, custom)"
   xmlns:inkscape="http://www.inkscape.org/namespaces/inkscape"
   xmlns:sodipodi="http://sodipodi.sourceforge.net/DTD/sodipodi-0.dtd"
   xmlns="http://www.w3.org/2000/svg"
   xmlns:svg="http://www.w3.org/2000/svg">
  <defs
     id="defs2" />
  <sodipodi:namedview
     id="namedview2"
     pagecolor="#ffffff"
     bordercolor="#000000"
     borderopacity="0.25"
     inkscape:showpageshadow="2"
     inkscape:pageopacity="0.0"
     inkscape:pagecheckerboard="0"
     inkscape:deskcolor="#d1d1d1"
     inkscape:zoom="0.9975"
     inkscape:cx="400"
     inkscape:cy="400"
     inkscape:window-width="1920"
     inkscape:window-height="1011"
     inkscape:window-x="0"
     inkscape:window-y="0"
     inkscape:window-maximized="1"
     inkscape:current-layer="svg2" />
  <path
     fill="#000000"
     d="M105 25c0 5.34-5.24 11.264-7.723 13.771a1.78 1.78 0 0 1-2.554 0C92.239 36.264 87 30.341 87 25a9 9 0 1 1 18 0ZM87 167c0-5.341 5.24-11.264 7.723-13.771a1.779 1.779 0 0 1 2.554 0C99.761 155.736 105 161.659 105 167a9 9 0 0 1-9 9 9 9 0 0 1-9-9Zm80-62c-5.341 0-11.264-5.24-13.771-7.723a1.779 1.779 0 0 1 0-2.554C155.736 92.239 161.659 87 167 87a9 9 0 0 1 9 9 9 9 0 0 1-9 9ZM25 87c5.34 0 11.264 5.24 13.771 7.723a1.78 1.78 0 0 1 0 2.554C36.264 99.761 30.341 105 25 105a9 9 0 1 1 0-18Zm127.569-34.84c-3.777 3.776-11.67 4.26-15.199 4.277a1.78 1.78 0 0 1-1.806-1.807c.017-3.53.5-11.422 4.277-15.199a9 9 0 1 1 12.728 12.728ZM39.431 139.841c3.777-3.777 11.67-4.26 15.2-4.277a1.78 1.78 0 0 1 1.805 1.806c-.017 3.529-.5 11.422-4.277 15.199a9 9 0 1 1-12.728-12.728Zm100.41 12.728c-3.777-3.777-4.26-11.67-4.277-15.199a1.78 1.78 0 0 1 1.806-1.806c3.529.017 11.422.5 15.199 4.277a9.001 9.001 0 0 1 0 12.728 9.001 9.001 0 0 1-12.728 0ZM52.16 39.431c3.776 3.777 4.26 11.67 4.277 15.2a1.78 1.78 0 0 1-1.807 1.805c-3.53-.017-11.422-.5-15.199-4.277a9 9 0 0 1 0-12.727 9 9 0 0 1 12.728 0Z"
     id="path1"
     style="fill:#023b7a;fill-opacity:0.53364283" />
  <path
     stroke="#000000"
     stroke-linecap="round"
     stroke-linejoin="round"
     stroke-width="12"
     d="m80 96 16 16 32-32"
     id="path2"
     style="stroke:#93c5fd;stroke-opacity:1" />
</svg>
