<svg role="img" xmlns="http://www.w3.org/2000/svg" fill="none" class="h-full w-full" viewBox="0 0 196 205"><path fill="#fff" d="M117.167 31h61v69h-61z"></path><path fill="#DD0031" d="M139.546 72.688h17.241l-8.625-20.45m0-32.238L101 36.592l7.192 61.546L148.167 120l39.983-21.842 7.183-61.558-47.171-16.596V20zm29.434 76.292h-10.992l-5.925-14.596H135.65l-5.925 14.6h-11l29.442-65.254 29.429 65.25z"></path><path fill="#DD0031" d="M139.546 72.688h17.241l-8.625-20.45m0-32.238L101 36.592l7.192 61.546L148.167 120l39.983-21.842 7.183-61.558-47.171-16.596V20zm29.434 76.292h-10.992l-5.925-14.596H135.65l-5.925 14.6h-11l29.442-65.254 29.429 65.25z"></path><path fill="#fff" d="M16.167 11h61v69h-61z"></path><path fill="#DD0031" d="M38.546 52.688h17.242l-8.625-20.45m0-32.238L0 16.592l7.192 61.546L47.167 100 87.15 78.158 94.333 16.6 47.163.004V0zm29.433 76.292H65.604L59.68 61.696H34.65l-5.925 14.6h-11l29.442-65.254 29.429 65.25z"></path><path fill="#DD0031" d="M38.546 52.688h17.242l-8.625-20.45m0-32.238L0 16.592l7.192 61.546L47.167 100 87.15 78.158 94.333 16.6 47.163.004V0zm29.433 76.292H65.604L59.68 61.696H34.65l-5.925 14.6h-11l29.442-65.254 29.429 65.25z"></path><path fill="#fff" d="M46.167 116h61v69h-61z"></path><path fill="#DD0031" d="M68.546 157.687h17.241l-8.625-20.45m0-32.237L30 121.592l7.192 61.545L77.167 205l39.983-21.842 7.183-61.558-47.17-16.596V105zm29.434 76.292H95.604l-5.925-14.596H64.65l-5.925 14.6h-11l29.442-65.254 29.429 65.25z"></path><path fill="#DD0031" d="M68.546 157.687h17.241l-8.625-20.45m0-32.237L30 121.592l7.192 61.545L77.167 205l39.983-21.842 7.183-61.558-47.17-16.596V105zm29.434 76.292H95.604l-5.925-14.596H64.65l-5.925 14.6h-11l29.442-65.254 29.429 65.25z"></path></svg>